<?xml version="1.0" encoding="utf-8"?>
<svg viewBox="0 0 32 32" xmlns="http://www.w3.org/2000/svg">
  <path d="M 8.947 12.775 L 25.684 12.775 L 25.684 10.357 C 25.684 9.022 24.601 7.939 23.266 7.939 L 15.205 7.939 L 11.98 4.714 L 3.918 4.714 C 2.583 4.714 1.5 5.797 1.5 7.132 L 1.5 23.679 L 6.062 14.554 C 6.609 13.461 7.717 12.775 8.947 12.775 Z M 28.864 14.388 L 8.947 14.388 C 8.337 14.388 7.778 14.73 7.506 15.28 L 1.5 27.286 L 24.027 27.286 C 24.637 27.286 25.196 26.941 25.469 26.395 L 30.306 16.721 C 30.884 15.647 30.103 14.388 28.864 14.388 Z" style="fill: rgb(255, 255, 255);"/>
</svg>