<?xml version="1.0" encoding="utf-8"?>
<svg viewBox="0 0 25 25" xmlns="http://www.w3.org/2000/svg">
  <path d="M 16.998 7.1 L 7.98 7.1 C 7.172 7.1 6.5 7.792 6.5 8.644 L 6.5 16.356 C 6.5 17.208 7.172 17.9 7.98 17.9 L 16.998 17.9 C 17.827 17.9 18.5 17.208 18.5 16.356 L 18.5 8.644 C 18.5 7.792 17.849 7.1 16.998 7.1 Z M 9.107 8.644 C 9.73 8.644 10.235 9.161 10.235 9.8 C 10.235 10.439 9.752 10.956 9.107 10.956 C 8.466 10.956 7.98 10.439 7.98 9.8 C 7.98 9.161 8.506 8.644 9.107 8.644 Z M 16.974 16.156 C 16.907 16.28 16.782 16.356 16.642 16.356 L 8.424 16.356 C 8.285 16.356 8.155 16.276 8.092 16.147 C 8.026 16.017 8.038 15.861 8.122 15.743 L 9.765 13.431 C 9.836 13.329 9.948 13.271 10.068 13.271 C 10.187 13.271 10.302 13.33 10.373 13.431 L 11.134 14.503 L 13.326 11.151 C 13.397 11.023 13.512 10.956 13.638 10.956 C 13.762 10.956 13.88 11.022 13.951 11.129 L 16.955 15.759 C 17.033 15.875 17.039 16.027 16.974 16.156 Z" style="opacity: 0.9; fill: rgb(255, 255, 255);"/>
</svg>