<?xml version="1.0" encoding="utf-8"?>
<svg viewBox="0 0 25 25" xmlns="http://www.w3.org/2000/svg">
  <path d="M 9.082 9.605 C 10.37 8.317 12.511 8.317 13.799 9.605 C 14.958 10.764 15.129 12.611 14.177 13.943 L 14.151 13.981 C 13.912 14.312 13.449 14.39 13.117 14.151 C 12.784 13.913 12.706 13.45 12.944 13.118 L 12.97 13.082 C 13.5 12.338 13.418 11.321 12.77 10.675 C 12.042 9.948 10.859 9.948 10.13 10.675 L 7.53 13.276 C 6.8 13.984 6.8 15.187 7.53 15.916 C 8.174 16.563 9.193 16.647 9.935 16.117 L 9.972 16.07 C 10.304 15.852 10.768 15.929 11.004 16.263 C 11.242 16.597 11.167 17.06 10.833 17.298 L 10.796 17.324 C 9.444 18.276 7.639 18.123 6.48 16.966 C 5.173 15.659 5.173 13.535 6.48 12.23 L 9.082 9.605 Z M 15.916 15.373 C 14.608 16.682 12.487 16.682 11.179 15.373 C 10.02 14.216 9.869 12.388 10.821 11.057 L 10.847 11.018 C 11.066 10.689 11.529 10.609 11.881 10.848 C 12.215 11.067 12.292 11.53 12.053 11.882 L 12.028 11.92 C 11.5 12.641 11.582 13.679 12.229 14.326 C 12.957 15.053 14.139 15.053 14.869 14.326 L 17.468 11.725 C 18.199 10.994 18.199 9.793 17.468 9.083 C 16.824 8.437 15.804 8.353 15.064 8.884 L 15.028 8.91 C 14.694 9.149 14.231 9.051 13.994 8.736 C 13.756 8.402 13.831 7.94 14.165 7.702 L 14.203 7.678 C 15.534 6.726 17.36 6.875 18.518 8.034 C 19.827 9.344 19.827 11.464 18.518 12.772 L 15.916 15.373 Z" style="fill: rgb(255, 255, 255);"/>
</svg>