<?xml version="1.0" encoding="utf-8"?>
<svg viewBox="0 0 32 32" xmlns="http://www.w3.org/2000/svg">
  <path d="M 22 16 C 22 17.387 21.925 18.725 21.794 20 L 10.206 20 C 10.075 18.725 9.944 17.387 9.944 16 C 9.944 14.612 10.075 13.275 10.206 12 L 21.794 12 C 21.925 13.275 22 14.612 22 16 Z M 31.494 12 C 31.825 13.281 32 14.619 32 16 C 32 17.381 31.825 18.719 31.494 20 L 23.8 20 C 23.931 18.712 24 17.319 24 16 C 24 14.625 23.931 13.287 23.8 12 L 31.494 12 Z M 30.838 10 L 23.544 10 C 22.919 6.009 21.681 2.664 20.088 0.528 C 24.988 1.818 28.963 5.371 30.838 10 Z M 21.519 10 L 10.481 10 C 10.863 7.725 11.45 5.711 12.169 4.084 C 12.825 2.609 13.556 1.538 14.263 0.863 C 14.963 0.199 15.544 0 16 0 C 16.456 0 17.038 0.199 17.738 0.863 C 18.444 1.538 19.175 2.609 19.831 4.084 C 20.55 5.711 21.138 7.725 21.519 10 Z M 1.163 10 C 3.037 5.371 7.013 1.818 11.913 0.528 C 10.319 2.664 9.081 6.009 8.456 10 L 1.163 10 Z M 8.2 12 C 8.069 13.287 7.944 14.625 7.944 16 C 7.944 17.319 8.069 18.712 8.2 20 L 0.504 20 C 0.175 18.719 0 17.381 0 16 C 0 14.619 0.175 13.281 0.504 12 L 8.2 12 Z M 12.169 27.912 C 11.45 26.287 10.863 24.275 10.481 22 L 21.519 22 C 21.138 24.275 20.55 26.287 19.831 27.912 C 19.175 29.394 18.444 30.462 17.738 31.137 C 17.038 31.8 16.456 32 15.944 32 C 15.544 32 14.963 31.8 14.263 31.137 C 13.556 30.462 12.825 29.394 12.169 27.912 Z M 11.913 31.475 C 7.013 30.181 3.037 26.631 1.163 22 L 8.456 22 C 9.081 25.994 10.319 29.337 11.913 31.475 Z M 20.088 31.475 C 21.681 29.337 22.919 25.994 23.544 22 L 30.838 22 C 28.963 26.631 24.988 30.181 20.088 31.475 Z" style="fill: rgb(255, 255, 255);"/>
</svg>