<?xml version="1.0" encoding="utf-8"?>
<svg viewBox="0 0 32 32" width="32px" height="32px" xmlns="http://www.w3.org/2000/svg">
  <path d="M 10.222 16 C 10.222 17.717 8.829 19.111 7.111 19.111 C 5.393 19.111 4 17.717 4 16 C 4 14.283 5.393 12.889 7.111 12.889 C 8.829 12.889 10.222 14.283 10.222 16 Z M 19.111 16 C 19.111 17.717 17.717 19.111 16 19.111 C 14.283 19.111 12.889 17.717 12.889 16 C 12.889 14.283 14.283 12.889 16 12.889 C 17.717 12.889 19.111 14.283 19.111 16 Z M 21.778 16 C 21.778 14.283 23.172 12.889 24.889 12.889 C 26.606 12.889 28 14.283 28 16 C 28 17.717 26.606 19.111 24.889 19.111 C 23.172 19.111 21.778 17.717 21.778 16 Z" transform="matrix(0, -1, 1, 0, 0, 32)" style="fill: rgb(255, 255, 255);"/>
</svg>