<?xml version="1.0" encoding="UTF-8" standalone="no" ?>
<!DOCTYPE svg PUBLIC "-//W3C//DTD SVG 1.1//EN" "http://www.w3.org/Graphics/SVG/1.1/DTD/svg11.dtd">
<svg xmlns="http://www.w3.org/2000/svg" xmlns:xlink="http://www.w3.org/1999/xlink" version="1.1" width="20" height="16.06" viewBox="0 0 20 16.06" xml:space="preserve">
<desc>Created with Fabric.js 4.6.0</desc>
<defs>
</defs>
<g transform="matrix(1 0 0 1 11.99 8.03)" id="luYNHmBI-ErI9UD0G2BVU"  >
<path style="stroke: none; stroke-width: 0; stroke-dasharray: none; stroke-linecap: butt; stroke-dashoffset: 0; stroke-linejoin: miter; stroke-miterlimit: 4; fill: rgb(209,209,209); fill-rule: nonzero; opacity: 1;" vector-effect="non-scaling-stroke"  transform=" translate(-8, -8)" d="M 15.63452 13.8657 L 11.89387 10.125060000000001 C 12.74443 8.862180000000002 13.164109999999999 7.284420000000001 12.93947 5.603130000000001 C 12.55627 2.743450000000001 10.212579999999999 0.41624000000000105 7.35002 0.053840000000001 C 3.09401 -0.48471999999999904 -0.48472000000000026 3.094000000000001 0.05384000000000011 7.350010000000001 C 0.4164000000000001 10.213690000000001 2.74393 12.559460000000001 5.60393 12.940740000000002 C 7.28521 13.165380000000003 8.8633 12.745860000000002 10.12586 11.895140000000001 L 13.86651 15.63578 C 14.35467 16.12394 15.14619 16.12394 15.63435 15.63578 C 16.12203 15.146980000000001 16.12203 14.35322 15.634509999999999 13.8657 z M 2.47193 6.50008 C 2.47193 4.29448 4.26633 2.50007 6.47194 2.50007 C 8.67755 2.50007 10.47195 4.2944700000000005 10.47195 6.50008 C 10.47195 8.70568 8.67755 10.50009 6.47194 10.50009 C 4.26633 10.50009 2.4719300000000004 8.70633 2.4719300000000004 6.5000800000000005 z" stroke-linecap="round" />
</g>
</svg>