<svg xmlns="http://www.w3.org/2000/svg" xmlns:xlink="http://www.w3.org/1999/xlink" width="32" height="32" version="1.1" style=""><rect id="backgroundrect" width="100%" height="100%" x="0" y="0" fill="none" stroke="none" style="" class=""/>

<g class="currentLayer" style=""><title>Layer 1</title><g id="surface1" class="">
<path style=" stroke:none;fill-rule:nonzero;fill:rgb(0%,0%,0%);fill-opacity:1;" d="M25.066855597835545,22.963340696352958 L20.62154359783554,18.521934696352957 C21.63716859783554,17.021934696352957 22.12935559783554,15.14693469635296 21.86373059783554,13.154746696352959 C21.414511597835542,9.75240269635296 18.62935559783554,6.994590696352959 15.227011597835542,6.560996696352959 C10.176230597835541,5.924277696352959 5.92623059783554,10.17427769635296 6.562949597835541,15.22505869635296 C6.99654359783554,18.62740269635296 9.76216859783554,21.41255869635296 13.15669959783554,21.865684696352957 C15.14888759783554,22.135215696352958 17.02388759783554,21.635215696352958 18.52388759783554,20.62349669635296 L22.96529359783554,25.06880869635296 C23.54732459783554,25.646934696352957 24.48482459783554,25.646934696352957 25.066855597835545,25.06880869635296 C25.64498059783554,24.48287169635296 25.64498059783554,23.54537169635296 25.066855597835545,22.963340696352958 zM9.434043597835542,14.217246696352959 C9.434043597835542,11.60005869635296 11.566855597835541,9.467246696352959 14.18404359783554,9.467246696352959 C16.80513759783554,9.467246696352959 18.93404359783554,11.60005869635296 18.93404359783554,14.217246696352959 C18.93404359783554,16.834434696352957 16.80513759783554,18.96724669635296 14.18404359783554,18.96724669635296 C11.566855597835541,18.96724669635296 9.434043597835542,16.838340696352958 9.434043597835542,14.217246696352959 zM9.434043597835542,14.217246696352959 " id="svg_1"/>
</g></g></svg>