<?xml version="1.0" encoding="utf-8"?>
<svg viewBox="0 0 25 25" width="25px" height="25px" preserveAspectRatio="xMaxYMid" xmlns="http://www.w3.org/2000/svg">
  <path d="M 16.786 8.483 L 8.214 8.483 C 7.82 8.483 7.5 8.122 7.5 7.679 C 7.5 7.235 7.82 6.875 8.214 6.875 L 16.786 6.875 C 17.181 6.875 17.5 7.235 17.5 7.679 C 17.5 8.122 17.181 8.483 16.786 8.483 Z M 16.786 14.911 L 8.214 14.911 C 7.82 14.911 7.5 14.551 7.5 14.107 C 7.5 13.663 7.82 13.304 8.214 13.304 L 16.786 13.304 C 17.181 13.304 17.5 13.663 17.5 14.107 C 17.5 14.551 17.181 14.911 16.786 14.911 Z M 7.5 10.893 C 7.5 10.449 7.82 10.089 8.214 10.089 L 16.786 10.089 C 17.181 10.089 17.5 10.449 17.5 10.893 C 17.5 11.338 17.181 11.696 16.786 11.696 L 8.214 11.696 C 7.82 11.696 7.5 11.338 7.5 10.893 Z M 16.786 18.125 L 8.214 18.125 C 7.82 18.125 7.5 17.766 7.5 17.321 C 7.5 16.877 7.82 16.518 8.214 16.518 L 16.786 16.518 C 17.181 16.518 17.5 16.877 17.5 17.321 C 17.5 17.766 17.181 18.125 16.786 18.125 Z" style="fill: rgb(255, 255, 255);"/>
</svg>